<svg id="SvgjsSvg1026" width="288" height="288" xmlns="http://www.w3.org/2000/svg" version="1.1" xmlns:xlink="http://www.w3.org/1999/xlink" xmlns:svgjs="http://svgjs.com/svgjs"><defs id="SvgjsDefs1027"></defs><g id="SvgjsG1028"><svg xmlns="http://www.w3.org/2000/svg" xmlns:xlink="http://www.w3.org/1999/xlink" viewBox="0 0 32 32" width="288" height="288"><path fill="#4d81ff" d="M16.005-.011c-8.837 0-16 7.163-16 16 0 8.836 7.163 16 16 16s16-7.164 16-16-7.163-16-16-16z" class="colorCCC svgShape"></path><path fill="#1a1718" d="M16.005 1.348c-8.086 0-14.641 6.555-14.641 14.641S7.919 30.63 16.005 30.63s14.641-6.555 14.641-14.641c.001-8.086-6.555-14.641-14.641-14.641z" class="color1A1718 svgShape"></path><defs><path id="a" d="M16 0C7.163 0 0 7.163 0 16c0 8.836 7.163 16 16 16s16-7.164 16-16c0-8.837-7.163-16-16-16z" fill="#000000" class="color000 svgShape"></path></defs><clipPath id="b"><use overflow="visible" xlink:href="#a"></use></clipPath><path fill="#ffffff" fill-rule="evenodd" d="M0 32V0h32" clip-path="url(#b)" clip-rule="evenodd" opacity=".2" class="colorFFF svgShape"></path><path fill="#ffffff" d="M24.299 22.932v-6.137c0-3.288-1.755-4.818-4.096-4.818-1.889 0-2.735 1.039-3.206 1.768v-1.517h-3.558c.047 1.005 0 10.704 0 10.704h3.558v-5.978c0-.319.023-.639.117-.867.257-.639.842-1.301 1.825-1.301 1.288 0 1.803.981 1.803 2.42v5.727l3.557-.001zM9.69 10.767c1.24 0 2.013-.823 2.013-1.85-.023-1.05-.773-1.849-1.99-1.849s-2.012.798-2.012 1.848c0 1.028.772 1.85 1.967 1.85h.022zm1.779 12.165V12.228H7.912v10.704h3.557z" class="colorFFF svgShape"></path></svg></g></svg>