<?xml version="1.0" ?><svg enable-background="new 0 0 32 32" version="1.1" viewBox="0 0 32 32" xml:space="preserve" xmlns="http://www.w3.org/2000/svg" xmlns:xlink="http://www.w3.org/1999/xlink"><g id="style_2_copy_5"><g><g><path d="M16,31.5C7.453,31.5,0.5,24.547,0.5,16S7.453,0.5,16,0.5S31.5,7.453,31.5,16S24.547,31.5,16,31.5z" fill="#FFFFFF"/></g><g><g><path d="M16,1c8.271,0,15,6.729,15,15s-6.729,15-15,15S1,24.271,1,16S7.729,1,16,1 M16,0C7.163,0,0,7.163,0,16      s7.163,16,16,16s16-7.163,16-16S24.837,0,16,0L16,0z" fill="#00BDFF"/></g></g><g><g><path d="M16,3.007c7.165,0,12.993,5.829,12.993,12.993S23.164,28.993,16,28.993S3.007,23.164,3.007,16S8.835,3.007,16,3.007"/></g></g><g><path d="M16,3.006C8.836,3.006,3.006,8.836,3.006,16c0,3.605,1.478,6.871,3.858,9.227L25.227,6.864     C22.871,4.485,19.605,3.006,16,3.006z" fill="#FFFFFF" opacity="0.3"/></g></g><g><g><path d="M15.338,15.833c-0.421-0.389-0.888-0.935-1.091-1.419c-0.031-0.062-0.093-0.218,0-0.343     c0.187-0.249,0.218-0.265,0.421-0.499c0.14-0.172,0.249-0.327,0.203-0.468l-0.701-1.824c-0.063-0.125-0.249-0.14-0.468-0.156     c-0.187,0-0.389,0-0.53,0.031c-0.312,0.109-0.95,0.951-1.028,1.559c-0.172,1.325,1.028,3.087,2.228,4.178     c1.2,1.107,3.054,2.152,4.363,1.855c0.608-0.14,1.387-0.842,1.449-1.169c0.031-0.14,0.016-0.343-0.016-0.53     c-0.016-0.218-0.062-0.374-0.187-0.436l-1.589-0.733c-0.141-0.078-0.281-0.016-0.421,0.156c-0.171,0.234-0.25,0.327-0.452,0.577     c-0.109,0.14-0.187,0.234-0.311,0.249c-0.141,0.031-0.327-0.047-0.359-0.047C16.35,16.644,15.774,16.223,15.338,15.833     L15.338,15.833z M10.102,21.431l0.904-2.292C10.008,17.985,9.4,16.472,9.4,14.82c0-3.648,2.961-6.595,6.608-6.595     c3.646,0,6.591,2.947,6.591,6.595c0,3.648-2.945,6.611-6.591,6.611c-1.465,0-2.805-0.468-3.896-1.278L10.102,21.431z      M8.995,19.185l-1.247,4.989l4.457-2.027c1.138,0.592,2.431,0.936,3.803,0.936c4.55,0,8.243-3.695,8.243-8.264     c0-4.552-3.694-8.248-8.243-8.248c-4.566,0-8.259,3.695-8.259,8.248C7.749,16.426,8.216,17.923,8.995,19.185L8.995,19.185z" fill="#FFFFFF"/></g></g></g></svg>